<svg xmlns="http://www.w3.org/2000/svg" width="128" height="128" viewBox="0 0 128 128">
<path d="M109 49.5L56.2695 78.4555C55.9969 78.5898 55.6854 78.4102 55.6854 78.0491V58.61L19.5452 78.4555C19.3115 78.5898 19 78.4102 19 78.0491V49.5H44.2351C45.0918 49.5 45.7927 50.311 45.7927 51.3035V59.4088C45.7927 60.717 46.9609 61.5734 48.0123 61.0327L55.6836 56.864V49.9517C55.6836 49.7267 55.8783 49.5 56.073 49.5H80.9187C81.7754 49.5 82.4763 50.311 82.4763 51.3035V59.4472C82.4763 60.7553 83.6835 61.6117 84.6959 61.071L105.862 49.5H109Z" />
    <style>
        path { fill: #000; }
        @media (prefers-color-scheme: dark) {
            path { fill: #FFF; }
        }
    </style>
</svg>
