<?xml version="1.0" standalone="no"?>
<!DOCTYPE svg PUBLIC "-//W3C//DTD SVG 20010904//EN"
 "http://www.w3.org/TR/2001/REC-SVG-20010904/DTD/svg10.dtd">
<svg version="1.0" xmlns="http://www.w3.org/2000/svg"
 width="509.000000pt" height="509.000000pt" viewBox="0 0 509.000000 509.000000"
 preserveAspectRatio="xMidYMid meet">
<metadata>
Created by potrace 1.14, written by Peter Selinger 2001-2017
</metadata>
<g transform="translate(0.000000,509.000000) scale(0.100000,-0.100000)"
fill="#000000" stroke="none">
<path d="M635 3190 l-70 -5 -1 -630 c0 -346 2 -636 4 -642 2 -7 8 -13 12 -13
7 0 336 181 585 322 44 25 105 59 135 75 30 16 189 105 353 196 164 92 299
167 302 167 2 0 49 27 106 60 56 33 104 58 108 55 3 -4 6 -196 7 -428 1 -232
2 -428 3 -434 2 -21 19 -15 115 39 50 28 116 65 146 81 30 17 72 41 92 54 21
13 40 23 43 23 3 0 42 20 85 45 44 25 101 57 127 72 26 14 69 39 95 54 27 16
51 29 53 29 2 0 50 26 107 58 57 32 129 73 161 90 142 79 176 98 245 139 41
24 75 43 77 43 2 0 101 54 195 107 19 11 60 33 90 50 30 17 98 54 150 83 52
29 118 66 145 81 28 15 131 73 230 128 l180 101 -68 0 c-75 0 -76 0 -357 -158
-69 -38 -150 -83 -180 -99 -30 -17 -149 -83 -264 -147 -115 -64 -219 -116
-232 -116 -12 0 -31 11 -42 25 -19 23 -20 42 -21 224 0 110 -3 210 -6 223 -12
49 -10 49 -602 49 -305 0 -558 -3 -561 -6 -4 -3 -7 -76 -7 -162 l-1 -156 -34
-22 c-19 -12 -69 -40 -110 -62 -41 -22 -105 -56 -142 -76 -78 -43 -91 -45
-123 -13 -23 23 -24 26 -25 237 -1 207 -1 215 -23 236 l-22 23 -495 2 c-272 2
-526 1 -565 -2z"/>
</g>
</svg>
