<svg width="128" height="128" viewBox="0 0 128 128" fill="none" xmlns="http://www.w3.org/2000/svg">
<path d="M118 47L54.7233 80.9478C54.3962 81.1053 54.0224 80.8947 54.0224 80.4714V57.6806L10.6542 80.9478C10.3738 81.1053 10 80.8947 10 80.4714V47H40.2821C41.3102 47 42.1513 47.9509 42.1513 49.1144V58.6172C42.1513 60.1509 43.5531 61.155 44.8148 60.5211L54.0203 55.6337V47.5296C54.0203 47.2658 54.2539 47 54.4876 47H84.3024C85.3305 47 86.1716 47.9509 86.1716 49.1144V58.6622C86.1716 60.1959 87.6202 61.2 88.8351 60.566L114.234 47H118Z" fill="#EFEDED"/>
  <style>
    path { fill: #000; } 
    @media (prefers-color-scheme: dark) {
      path { fill: #FFF; } 
    }
  </style>
</svg>
